HIERARCHY
ROOT hip
{
	OFFSET 0.000000 0.000000 0.000000 
	CHANNELS 6 Xposition Yposition Zposition Xrotation Zrotation Yrotation
	JOINT abdomen
	{
		OFFSET 0.000000 3.402643 0.000000 
		CHANNELS 3 Xrotation Zrotation Yrotation
		JOINT chest
		{
			OFFSET 0.000000 8.438565 -0.680529 
			CHANNELS 3 Xrotation Zrotation Yrotation
			JOINT neck
			{
				OFFSET 0.000000 10.207942 -0.272212 
				CHANNELS 3 Xrotation Zrotation Yrotation
				JOINT head
				{
					OFFSET 0.000000 3.130431 0.000000 
					CHANNELS 3 Xrotation Zrotation Yrotation
					End Site
					{
						OFFSET 0.000000 3.130435 0.000000 
					}
				}
			}
			JOINT lCollar
			{
				OFFSET 3.470700 6.669187 -0.816635 
				CHANNELS 3 Yrotation Zrotation Xrotation
				JOINT lShldr
				{
					OFFSET 3.198488 0.000000 0.000000 
					CHANNELS 3 Zrotation Yrotation Xrotation
					JOINT lForeArm
					{
						OFFSET 10.139888 0.000000 0.000000 
						CHANNELS 3 Yrotation Zrotation Xrotation
						JOINT lHand
						{
							OFFSET 8.370511 0.000000 0.000000 
							CHANNELS 3 Zrotation Yrotation Xrotation
							End Site
							{
								OFFSET 4.083176 0.000000 0.000000 
							}
						}
					}
				}
			}
			JOINT rCollar
			{
				OFFSET -3.470700 6.669187 -0.816635 
				CHANNELS 3 Yrotation Zrotation Xrotation
				JOINT rShldr
				{
					OFFSET -3.198488 0.000000 0.000000 
					CHANNELS 3 Zrotation Yrotation Xrotation
					JOINT rForeArm
					{
						OFFSET -10.139888 0.000000 0.000000 
						CHANNELS 3 Yrotation Zrotation Xrotation
						JOINT rHand
						{
							OFFSET -8.370511 0.000000 0.000000 
							CHANNELS 3 Zrotation Yrotation Xrotation
							End Site
							{
								OFFSET -4.083176 0.000000 0.000000 
							}
						}
					}
				}
			}
		}
	}
	JOINT lThigh
	{
		OFFSET 5.308129 -1.633274 1.361059 
		CHANNELS 3 Xrotation Zrotation Yrotation
		JOINT lShin
		{
			OFFSET -2.041588 -20.007561 0.000000 
			CHANNELS 3 Xrotation Zrotation Yrotation
			JOINT lFoot
			{
				OFFSET 0.000000 -19.190928 -1.224953 
				CHANNELS 3 Xrotation Yrotation Zrotation
				End Site
				{
					OFFSET 0.000000 -2.449906 4.627600 
				}
			}
		}
	}
	JOINT rThigh
	{
		OFFSET -5.308129 -1.633274 1.361059 
		CHANNELS 3 Xrotation Zrotation Yrotation
		JOINT rShin
		{
			OFFSET 2.041588 -20.007561 0.000000 
			CHANNELS 3 Xrotation Zrotation Yrotation
			JOINT rFoot
			{
				OFFSET 0.000000 -19.190928 -1.224953 
				CHANNELS 3 Xrotation Yrotation Zrotation
				End Site
				{
					OFFSET 0.000000 -2.449906 4.627600 
				}
			}
		}
	}
}
MOTION
Frames: 8
Frame Time: 0.033333
-33.950161 52.198631 6.720356 -0.497386 0.283285 41.944038 0.000000 0.000000 0.000000 4.155252 0.419213 3.330204 6.850698 -0.492610 32.784527 -1.156473 -4.920274 28.885597 -0.848320 -1.101176 4.258204 -66.211891 17.419500 -1.354120 -31.876251 -1.118315 10.071378 4.494695 6.051828 -3.432576 8.397281 12.206010 3.738190 53.815170 -16.846033 5.441341 40.527882 6.445606 13.939755 -11.962787 -10.297196 -2.880661 3.228750 2.604801 3.970886 2.671995 -2.171727 17.598679 -4.817787 0.115242 -2.105255 6.245548 -6.773279 -7.869481 2.021446 2.554666 -23.825304 -4.195275 -0.305461 7.252520 
-34.118393 52.229561 6.865619 -0.182903 0.386329 41.719959 0.000000 0.000000 0.000000 3.256385 0.214374 3.789109 6.690823 -0.394909 32.598473 -0.521082 -4.575011 28.350132 -1.173232 -1.654700 3.408828 -66.820297 11.889093 1.877702 -33.833729 -1.874833 10.251733 5.346738 4.677812 -3.454781 9.604636 12.979313 2.809775 53.181637 -14.024059 6.968119 41.543606 6.874272 15.141459 -12.548858 -10.008638 -2.878048 3.692501 2.456412 3.728046 1.404859 -2.000072 18.151978 -4.070740 0.087146 -2.281944 5.906495 -6.356871 -7.120551 1.573119 1.996711 -26.267504 -3.559838 -0.259916 7.046402 
-34.268486 52.283886 7.031685 -0.036760 0.797160 41.508919 0.000000 0.000000 0.000000 2.577455 -0.009743 3.935547 6.459450 -0.593841 32.374943 0.306907 -3.494895 27.682501 -1.322973 -2.156378 2.774718 -67.374008 5.844336 5.897687 -35.583565 -2.679058 10.890808 6.118181 2.877440 -3.518249 10.385368 13.762733 2.101836 52.450256 -10.721390 8.882056 43.140919 7.496474 15.823197 -12.888747 -10.601447 -2.790584 4.063297 2.154820 3.394188 1.024451 -1.697728 19.032515 -3.756711 0.077400 -2.664557 6.092893 -6.094026 -6.681274 1.016443 1.678346 -27.921036 -3.150357 -0.238406 6.624498 
-34.486084 52.295761 7.126322 0.450562 0.985725 41.130596 0.000000 0.000000 0.000000 1.643911 -0.233811 3.974616 6.381804 -0.712660 31.946058 0.713918 -3.142506 27.290058 -1.700043 -2.674539 1.885942 -67.720039 0.054165 10.457467 -37.600407 -3.457625 12.111279 8.048377 2.214100 -3.561065 10.910799 13.845509 1.221704 52.373928 -6.877695 11.465323 44.486122 8.109925 17.035870 -13.164873 -10.948559 -2.745267 3.826699 1.864952 2.993749 0.946994 -1.549368 19.514936 -3.557834 0.088740 -2.954113 5.952096 -6.353194 -6.694997 0.625350 1.785218 -27.727812 -3.078316 -0.208209 6.213490 
-34.727325 52.289589 7.245152 0.325698 1.031580 40.545162 0.000000 0.000000 0.000000 1.159342 -0.038964 4.062499 6.135589 -0.705941 31.740887 0.755433 -2.709061 26.897415 -2.176185 -2.428314 1.436091 -68.544907 -6.176662 15.037872 -39.676800 -3.908912 13.416768 9.087320 1.275631 -3.632882 11.163237 13.736649 0.737223 52.659889 -2.411090 14.087983 46.353352 8.559145 18.649319 -12.387889 -11.420797 -2.754899 3.854038 2.244550 3.423424 1.084575 -1.681020 19.829834 -3.518557 0.083107 -3.188562 6.326672 -6.453863 -7.186598 -0.012863 2.570346 -26.461498 -3.080777 -0.215493 5.419386 
-34.999615 52.251747 7.343252 0.374614 1.061637 40.047440 0.000000 0.000000 0.000000 0.640708 0.087689 3.876964 5.785612 -0.723843 31.575008 1.099305 -2.293375 26.771027 -2.650560 -2.076710 0.976279 -69.531555 -12.046906 18.946344 -41.763565 -3.977803 15.745948 9.756207 0.615395 -3.689281 11.192808 13.455713 0.244262 52.919979 2.226634 17.327850 48.426594 8.991573 19.886583 -11.910561 -13.159877 -2.618824 3.729828 2.382947 3.344638 1.142199 -1.434198 20.217436 -3.273062 0.109356 -3.618729 6.351733 -6.567283 -7.556575 -0.299221 3.227555 -25.569021 -3.182502 -0.177678 4.740063 
-35.262001 52.250927 7.482287 0.157888 1.402827 39.447922 0.000000 0.000000 0.000000 0.486862 0.126678 3.769544 5.729208 -0.674418 31.506300 0.966030 -2.239325 26.858065 -2.904338 -1.713656 0.858754 -70.251137 -17.867596 22.856600 -43.556332 -4.031576 17.519592 10.316945 0.116726 -3.750572 11.207808 13.319782 0.097713 53.071110 6.891811 20.537027 49.951290 9.139361 22.343119 -13.108867 -12.131216 -2.622224 4.137853 2.538279 3.438731 1.131850 -1.297575 20.374119 -3.118487 0.104396 -3.988368 6.580834 -6.474366 -7.571768 -0.327317 3.363085 -24.938084 -3.235179 -0.195290 4.311311 
-35.584290 52.266155 7.553814 0.100443 1.556949 38.610832 0.000000 0.000000 0.000000 0.323937 0.175409 3.730510 5.573061 -0.764559 31.682795 0.750247 -1.698559 26.887716 -3.148596 -1.231734 0.731562 -70.848267 -23.070221 26.749758 -45.354362 -4.064926 17.554930 10.795763 -0.478199 -3.808671 11.297943 13.048990 -0.039522 53.272434 11.150886 24.225687 51.625488 9.495975 21.704157 -15.651814 -11.431726 -2.512112 4.173154 2.691491 3.521683 1.131771 -1.171167 20.999228 -2.833580 0.106297 -4.205420 5.824012 -6.243955 -7.286401 0.684854 3.258698 -24.457390 -3.631232 -0.174460 4.071357 
